<?xml version="1.0" standalone="no"?>
<!DOCTYPE svg PUBLIC "-//W3C//DTD SVG 20010904//EN"
 "http://www.w3.org/TR/2001/REC-SVG-20010904/DTD/svg10.dtd">
<svg version="1.0" xmlns="http://www.w3.org/2000/svg"
 width="512.000000pt" height="512.000000pt" viewBox="0 0 512.000000 512.000000"
 preserveAspectRatio="xMidYMid meet">
<metadata>
Created by potrace 1.11, written by Peter Selinger 2001-2013
</metadata>
<g transform="translate(0.000000,512.000000) scale(0.100000,-0.100000)"
fill="#000000" stroke="none">
<path d="M840 4277 c0 -1 35 -90 78 -197 l78 -195 1127 -3 1127 -2 0 -709 0
-708 -52 -35 -53 -35 -214 219 c-229 235 -348 341 -478 425 -209 137 -409 184
-649 153 -240 -30 -430 -121 -679 -327 l-65 -53 176 -200 c97 -110 178 -200
180 -200 2 0 43 32 91 71 257 207 437 289 601 275 110 -10 191 -40 289 -106
111 -74 515 -422 503 -433 -3 -2 -373 -264 -823 -581 l-817 -578 137 -151 c76
-83 166 -181 200 -217 l62 -65 43 41 c24 23 382 348 796 723 l752 681 0 -694
0 -693 223 -91 222 -90 3 1689 2 1689 290 0 c160 0 290 3 290 7 0 4 -34 94
-76 200 l-77 193 -1643 0 c-904 0 -1644 -1 -1644 -3z"/>
</g>
</svg>
